<svg width="201" height="108" viewBox="0 0 201 108" fill="none" xmlns="http://www.w3.org/2000/svg">
<g clip-path="url(#clip0_171_12)">
<path d="M48.0574 14.467H80.4998V78.321H66.3109V28.6705H48.0574V14.4916V14.467ZM33.967 14.467V28.6459H48.0574V78.2964H33.8685V28.6705H16.6249V78.321H2.41138V14.467H33.9424H33.967ZM136.319 14.467H168.762V78.321H154.573V28.6705H136.319V14.4916V14.467ZM122.229 14.467V28.6459H136.319V78.2964H122.131V28.6705H104.887V78.321H90.6981V14.467H122.229ZM193.125 78.321H178.936V25.2242H193.125V78.321ZM193.125 14.467H178.936V0.288177H193.125V14.467Z" fill="black"/>
<path opacity="0.99" d="M14.3833 107.737C12.6836 107.737 11.107 107.442 9.67827 106.876C8.24952 106.309 6.99321 105.497 5.93397 104.463C4.87472 103.429 4.06182 102.223 3.47061 100.82C2.8794 99.417 2.5838 97.8908 2.5838 96.2415C2.5838 94.5922 2.8794 93.0661 3.47061 91.6629C4.06182 90.2598 4.89936 89.0536 5.9586 88.0198C7.01784 86.9859 8.27416 86.1982 9.72754 85.6074C11.1809 85.0166 12.7328 84.7458 14.4326 84.7458C16.1323 84.7458 17.6103 85.0166 19.039 85.5582C20.4678 86.0997 21.6995 86.9367 22.6848 88.0198L21.1575 89.546C20.2214 88.6105 19.2115 87.9213 18.103 87.5028C16.9944 87.0844 15.7874 86.8874 14.4818 86.8874C13.127 86.8874 11.8707 87.109 10.7129 87.5767C9.5551 88.0444 8.54513 88.6844 7.68295 89.546C6.82078 90.4075 6.15567 91.3922 5.663 92.5245C5.17033 93.6568 4.94862 94.8876 4.94862 96.2415C4.94862 97.5954 5.19496 98.8262 5.663 99.9586C6.15567 101.091 6.82078 102.076 7.68295 102.937C8.54513 103.799 9.5551 104.439 10.7129 104.906C11.8707 105.374 13.127 105.596 14.4818 105.596C15.8367 105.596 16.9698 105.374 18.103 104.956C19.2361 104.537 20.2461 103.848 21.1575 102.888L22.6848 104.414C21.6995 105.522 20.4678 106.334 19.039 106.9C17.5856 107.466 16.0584 107.737 14.3833 107.737Z" fill="black"/>
<path opacity="0.99" d="M30.1487 107.54H27.7593V84.9674H30.1487V107.54ZM44.5101 97.1277H29.9024V95.0353H44.5101V97.1277ZM44.2884 84.9674H46.6532V107.54H44.2884V84.9674Z" fill="black"/>
<path opacity="0.99" d="M50.3976 107.54L60.7191 84.9674H63.0839L73.4053 107.54H70.8927L61.4088 86.3459H62.3695L52.8856 107.54H50.3976ZM54.4621 101.509L55.1765 99.5647H68.3062L69.0206 101.509H54.4621Z" fill="black"/>
<path opacity="0.99" d="M77.1496 107.54V84.9674H79.1203L89.4418 102.568H88.4072L98.6301 84.9674H100.601V107.54H98.3099V88.5367H98.8518L89.4171 104.66H88.284L78.8001 88.5367H79.4159V107.54H77.125H77.1496Z" fill="black"/>
<path opacity="0.99" d="M107.966 107.54V84.9674H117.721C120.234 84.9674 122.18 85.4843 123.584 86.4936C124.963 87.5028 125.653 88.9306 125.653 90.7768C125.653 92.0076 125.358 93.0414 124.791 93.8784C124.224 94.7153 123.436 95.3553 122.475 95.7738C121.515 96.1923 120.431 96.4138 119.273 96.4138L119.815 95.6507C121.244 95.6507 122.5 95.8723 123.535 96.3154C124.569 96.7585 125.382 97.4231 125.973 98.2847C126.565 99.1462 126.836 100.229 126.836 101.534C126.836 103.454 126.121 104.931 124.717 105.989C123.313 107.048 121.194 107.565 118.337 107.565H107.942L107.966 107.54ZM110.356 105.571H118.337C120.308 105.571 121.835 105.226 122.894 104.562C123.953 103.872 124.471 102.814 124.471 101.312C124.471 99.8108 123.953 98.777 122.894 98.1123C121.835 97.4477 120.332 97.1031 118.337 97.1031H110.109V95.1338H117.573C119.372 95.1338 120.776 94.7892 121.786 94.0999C122.796 93.4107 123.288 92.4014 123.288 91.0475C123.288 89.6937 122.796 88.6352 121.786 87.9705C120.776 87.2813 119.372 86.9613 117.573 86.9613H110.38V105.596L110.356 105.571Z" fill="black"/>
<path opacity="0.99" d="M134.669 105.473H148.242V107.54H132.28V84.9674H147.774V87.0351H134.669V105.473ZM134.423 95.06H146.37V97.1031H134.423V95.06Z" fill="black"/>
<path opacity="0.99" d="M153.883 107.54V84.9674H162.333C164.254 84.9674 165.904 85.2628 167.259 85.8782C168.614 86.4936 169.698 87.3797 170.437 88.5121C171.176 89.669 171.546 91.0475 171.546 92.6968C171.546 94.3461 171.176 95.6507 170.437 96.8077C169.698 97.9646 168.639 98.8508 167.259 99.4416C165.88 100.032 164.229 100.352 162.333 100.352H155.189L156.248 99.2447V107.491H153.859L153.883 107.54ZM156.273 99.4662L155.213 98.3339H162.283C164.55 98.3339 166.249 97.8416 167.432 96.8569C168.614 95.8723 169.181 94.4938 169.181 92.6968C169.181 90.8998 168.589 89.4967 167.432 88.5121C166.249 87.5274 164.55 87.0351 162.283 87.0351H155.213L156.273 85.9028V99.4662ZM169.304 107.54L163.49 99.3431H166.077L171.915 107.54H169.304Z" fill="black"/>
<path opacity="0.99" d="M182.261 107.54V99.1462L182.803 100.623L173.221 84.9427H175.782L184.207 98.7031H182.852L191.277 84.9427H193.666L184.084 100.623L184.626 99.1462V107.54H182.261Z" fill="black"/>
</g>
<defs>
<clipPath id="clip0_171_12">
<rect width="200" height="107.812" fill="white" transform="translate(0.493469)"/>
</clipPath>
</defs>
</svg>
