<svg width="339" height="191" viewBox="0 0 339 191" fill="none" xmlns="http://www.w3.org/2000/svg">
<g clip-path="url(#clip0_171_2)">
<path d="M80.5584 25.5184H138.144V138.758H112.958V50.7069H80.5584V25.562V25.5184ZM55.5479 25.5184V50.6632H80.5584V138.714H55.373V50.7069H24.7658V138.758H-0.463272V25.5184H55.5042H55.5479ZM237.224 25.5184H294.809V138.758H269.624V50.7069H237.224V25.562V25.5184ZM212.213 25.5184V50.6632H237.224V138.714H212.038V50.7069H181.431V138.758H156.246V25.5184H212.213ZM338.053 138.758H312.867V44.5953H338.053V138.758ZM338.053 25.5184H312.867V0.373505H338.053V25.5184Z" fill="black"/>
<path opacity="0.99" d="M20.7869 190.924C17.7699 190.924 14.9715 190.401 12.4355 189.397C9.89946 188.393 7.66951 186.952 5.78935 185.118C3.90919 183.285 2.46628 181.146 1.41689 178.658C0.367499 176.169 -0.157196 173.463 -0.157196 170.538C-0.157196 167.613 0.367499 164.907 1.41689 162.418C2.46628 159.93 3.95292 157.791 5.83307 155.957C7.71323 154.124 9.94318 152.727 12.5229 151.679C15.1027 150.632 17.8573 150.151 20.8743 150.151C23.8913 150.151 26.5148 150.632 29.0508 151.592C31.5869 152.552 33.7731 154.037 35.5221 155.957L32.8111 158.664C31.1496 157.005 29.3569 155.783 27.3893 155.041C25.4217 154.299 23.2792 153.949 20.9618 153.949C18.5569 153.949 16.327 154.342 14.2719 155.172C12.2169 156.001 10.4242 157.136 8.8938 158.664C7.36343 160.192 6.18287 161.938 5.30838 163.946C4.43389 165.954 4.04036 168.137 4.04036 170.538C4.04036 172.939 4.47761 175.122 5.30838 177.13C6.18287 179.138 7.36343 180.884 8.8938 182.412C10.4242 183.94 12.2169 185.075 14.2719 185.904C16.327 186.734 18.5569 187.127 20.9618 187.127C23.3666 187.127 25.378 186.734 27.3893 185.992C29.4006 185.249 31.1933 184.027 32.8111 182.325L35.5221 185.031C33.7731 186.996 31.5869 188.436 29.0508 189.44C26.4711 190.444 23.7602 190.924 20.7869 190.924Z" fill="black"/>
<path opacity="0.99" d="M48.7706 190.575H44.5293V150.544H48.7706V190.575ZM74.2621 172.109H48.3334V168.399H74.2621V172.109ZM73.8686 150.544H78.0661V190.575H73.8686V150.544Z" fill="black"/>
<path opacity="0.99" d="M84.7122 190.575L103.033 150.544H107.23L125.551 190.575H121.091L104.257 152.989H105.962L89.1284 190.575H84.7122ZM91.9268 179.88L93.1948 176.431H116.5L117.768 179.88H91.9268Z" fill="black"/>
<path opacity="0.99" d="M132.197 190.575V150.544H135.695L154.016 181.757H152.179L170.325 150.544H173.823V190.575H169.757V156.874H170.719L153.972 185.468H151.961L135.127 156.874H136.22V190.575H132.153H132.197Z" fill="black"/>
<path opacity="0.99" d="M186.897 190.575V150.544H204.212C208.671 150.544 212.126 151.461 214.618 153.251C217.067 155.041 218.291 157.573 218.291 160.847C218.291 163.029 217.766 164.863 216.761 166.347C215.755 167.831 214.356 168.966 212.65 169.708C210.945 170.451 209.021 170.843 206.966 170.843L207.928 169.49C210.464 169.49 212.694 169.883 214.531 170.669C216.367 171.455 217.81 172.633 218.859 174.161C219.909 175.689 220.39 177.61 220.39 179.924C220.39 183.329 219.122 185.948 216.629 187.825C214.137 189.702 210.377 190.619 205.305 190.619H186.853L186.897 190.575ZM191.138 187.083H205.305C208.803 187.083 211.514 186.472 213.394 185.293C215.274 184.071 216.192 182.194 216.192 179.531C216.192 176.868 215.274 175.034 213.394 173.856C211.514 172.677 208.846 172.066 205.305 172.066H190.701V168.573H203.949C207.141 168.573 209.633 167.962 211.426 166.74C213.219 165.518 214.093 163.728 214.093 161.327C214.093 158.926 213.219 157.049 211.426 155.87C209.633 154.648 207.141 154.08 203.949 154.08H191.182V187.127L191.138 187.083Z" fill="black"/>
<path opacity="0.99" d="M234.294 186.908H258.386V190.575H230.053V150.544H257.556V154.211H234.294V186.908ZM233.857 168.443H255.063V172.066H233.857V168.443Z" fill="black"/>
<path opacity="0.99" d="M268.399 190.575V150.544H283.397C286.807 150.544 289.737 151.068 292.142 152.159C294.547 153.251 296.47 154.822 297.782 156.83C299.094 158.882 299.75 161.327 299.75 164.252C299.75 167.177 299.094 169.49 297.782 171.542C296.47 173.594 294.59 175.165 292.142 176.213C289.693 177.261 286.764 177.828 283.397 177.828H270.717L272.597 175.864V190.488H268.356L268.399 190.575ZM272.641 176.257L270.76 174.249H283.309C287.332 174.249 290.349 173.375 292.448 171.629C294.547 169.883 295.552 167.438 295.552 164.252C295.552 161.065 294.503 158.577 292.448 156.83C290.349 155.084 287.332 154.211 283.309 154.211H270.76L272.641 152.203V176.257ZM295.771 190.575L285.452 176.038H290.043L300.406 190.575H295.771Z" fill="black"/>
<path opacity="0.99" d="M318.77 190.575V175.689L319.732 178.308L302.723 150.501H307.27L322.224 174.903H319.819L334.773 150.501H339.015L322.006 178.308L322.968 175.689V190.575H318.77Z" fill="black"/>
</g>
<defs>
<clipPath id="clip0_171_2">
<rect width="339" height="191" fill="white"/>
</clipPath>
</defs>
</svg>
